<mxfile host="app.diagrams.net" modified="2023-04-26T00:38:54.008Z" agent="5.0 (Windows NT 10.0; Win64; x64) AppleWebKit/537.36 (KHTML, like Gecko) Chrome/112.0.0.0 Safari/537.36" etag="_yhvU8uovMpp2q3lNTBd" version="21.0.6" type="github">
  <diagram name="PÃ¡gina-1" id="NYcPPnJtYcKalRGNQ-kc">
    <mxGraphModel dx="1674" dy="796" grid="1" gridSize="10" guides="1" tooltips="1" connect="1" arrows="1" fold="1" page="1" pageScale="1" pageWidth="827" pageHeight="1169" math="0" shadow="0">
      <root>
        <mxCell id="0" />
        <mxCell id="1" parent="0" />
        <mxCell id="svK2BMb9B0SJ8rqlToY9-1" value="Game" style="swimlane;fontStyle=1;align=center;verticalAlign=top;childLayout=stackLayout;horizontal=1;startSize=26;horizontalStack=0;resizeParent=1;resizeParentMax=0;resizeLast=0;collapsible=1;marginBottom=0;whiteSpace=wrap;html=1;fillColor=#CCFFCC;" vertex="1" parent="1">
          <mxGeometry x="314" y="30" width="130" height="300" as="geometry" />
        </mxCell>
        <mxCell id="svK2BMb9B0SJ8rqlToY9-2" value="-ballcolor&lt;br&gt;-ballSpeed&lt;br&gt;-ballSize&lt;br&gt;-ballShape&lt;br&gt;-x&lt;br&gt;-y&lt;br&gt;-dx&lt;br&gt;-dy&lt;br&gt;-paddleHeight&lt;br&gt;- paddleWidth&lt;br&gt;-- paddleX&lt;br&gt;-score&lt;br&gt;-ballRadius" style="text;strokeColor=none;fillColor=#CCFFFF;align=left;verticalAlign=top;spacingLeft=4;spacingRight=4;overflow=hidden;rotatable=0;points=[[0,0.5],[1,0.5]];portConstraint=eastwest;whiteSpace=wrap;html=1;" vertex="1" parent="svK2BMb9B0SJ8rqlToY9-1">
          <mxGeometry y="26" width="130" height="204" as="geometry" />
        </mxCell>
        <mxCell id="svK2BMb9B0SJ8rqlToY9-3" value="" style="line;strokeWidth=1;fillColor=none;align=left;verticalAlign=middle;spacingTop=-1;spacingLeft=3;spacingRight=3;rotatable=0;labelPosition=right;points=[];portConstraint=eastwest;strokeColor=inherit;" vertex="1" parent="svK2BMb9B0SJ8rqlToY9-1">
          <mxGeometry y="230" width="130" height="8" as="geometry" />
        </mxCell>
        <mxCell id="svK2BMb9B0SJ8rqlToY9-4" value="+setup()&lt;br&gt;+drawPaddle()&lt;br&gt;+displayScore()&lt;br&gt;+keyPressed()" style="text;strokeColor=none;fillColor=#FFCCCC;align=left;verticalAlign=top;spacingLeft=4;spacingRight=4;overflow=hidden;rotatable=0;points=[[0,0.5],[1,0.5]];portConstraint=eastwest;whiteSpace=wrap;html=1;" vertex="1" parent="svK2BMb9B0SJ8rqlToY9-1">
          <mxGeometry y="238" width="130" height="62" as="geometry" />
        </mxCell>
        <mxCell id="svK2BMb9B0SJ8rqlToY9-31" value="1" style="endArrow=open;html=1;endSize=12;startArrow=diamondThin;startSize=14;startFill=0;edgeStyle=orthogonalEdgeStyle;align=left;verticalAlign=bottom;rounded=0;entryX=0.613;entryY=-0.018;entryDx=0;entryDy=0;entryPerimeter=0;" edge="1" parent="svK2BMb9B0SJ8rqlToY9-1" target="svK2BMb9B0SJ8rqlToY9-6">
          <mxGeometry x="-1" y="3" relative="1" as="geometry">
            <mxPoint x="66" y="300" as="sourcePoint" />
            <mxPoint x="226" y="300" as="targetPoint" />
          </mxGeometry>
        </mxCell>
        <mxCell id="svK2BMb9B0SJ8rqlToY9-6" value="Ball" style="swimlane;fontStyle=1;align=center;verticalAlign=top;childLayout=stackLayout;horizontal=1;startSize=26;horizontalStack=0;resizeParent=1;resizeParentMax=0;resizeLast=0;collapsible=1;marginBottom=0;whiteSpace=wrap;html=1;" vertex="1" parent="1">
          <mxGeometry x="299" y="440" width="160" height="110" as="geometry" />
        </mxCell>
        <mxCell id="svK2BMb9B0SJ8rqlToY9-7" value="-shape" style="text;strokeColor=none;fillColor=none;align=left;verticalAlign=top;spacingLeft=4;spacingRight=4;overflow=hidden;rotatable=0;points=[[0,0.5],[1,0.5]];portConstraint=eastwest;whiteSpace=wrap;html=1;" vertex="1" parent="svK2BMb9B0SJ8rqlToY9-6">
          <mxGeometry y="26" width="160" height="26" as="geometry" />
        </mxCell>
        <mxCell id="svK2BMb9B0SJ8rqlToY9-8" value="" style="line;strokeWidth=1;fillColor=none;align=left;verticalAlign=middle;spacingTop=-1;spacingLeft=3;spacingRight=3;rotatable=0;labelPosition=right;points=[];portConstraint=eastwest;strokeColor=inherit;" vertex="1" parent="svK2BMb9B0SJ8rqlToY9-6">
          <mxGeometry y="52" width="160" height="8" as="geometry" />
        </mxCell>
        <mxCell id="svK2BMb9B0SJ8rqlToY9-9" value="+draw()&lt;br&gt;+draw()&lt;br&gt;+update()" style="text;strokeColor=none;fillColor=none;align=left;verticalAlign=top;spacingLeft=4;spacingRight=4;overflow=hidden;rotatable=0;points=[[0,0.5],[1,0.5]];portConstraint=eastwest;whiteSpace=wrap;html=1;" vertex="1" parent="svK2BMb9B0SJ8rqlToY9-6">
          <mxGeometry y="60" width="160" height="50" as="geometry" />
        </mxCell>
        <mxCell id="svK2BMb9B0SJ8rqlToY9-10" value="Triangulo" style="swimlane;fontStyle=1;align=center;verticalAlign=top;childLayout=stackLayout;horizontal=1;startSize=26;horizontalStack=0;resizeParent=1;resizeParentMax=0;resizeLast=0;collapsible=1;marginBottom=0;whiteSpace=wrap;html=1;" vertex="1" parent="1">
          <mxGeometry x="139" y="660" width="160" height="86" as="geometry" />
        </mxCell>
        <mxCell id="svK2BMb9B0SJ8rqlToY9-11" value="+draw()" style="text;strokeColor=none;fillColor=none;align=left;verticalAlign=top;spacingLeft=4;spacingRight=4;overflow=hidden;rotatable=0;points=[[0,0.5],[1,0.5]];portConstraint=eastwest;whiteSpace=wrap;html=1;" vertex="1" parent="svK2BMb9B0SJ8rqlToY9-10">
          <mxGeometry y="26" width="160" height="26" as="geometry" />
        </mxCell>
        <mxCell id="svK2BMb9B0SJ8rqlToY9-12" value="" style="line;strokeWidth=1;fillColor=none;align=left;verticalAlign=middle;spacingTop=-1;spacingLeft=3;spacingRight=3;rotatable=0;labelPosition=right;points=[];portConstraint=eastwest;strokeColor=inherit;" vertex="1" parent="svK2BMb9B0SJ8rqlToY9-10">
          <mxGeometry y="52" width="160" height="8" as="geometry" />
        </mxCell>
        <mxCell id="svK2BMb9B0SJ8rqlToY9-13" value="+update()" style="text;strokeColor=none;fillColor=none;align=left;verticalAlign=top;spacingLeft=4;spacingRight=4;overflow=hidden;rotatable=0;points=[[0,0.5],[1,0.5]];portConstraint=eastwest;whiteSpace=wrap;html=1;" vertex="1" parent="svK2BMb9B0SJ8rqlToY9-10">
          <mxGeometry y="60" width="160" height="26" as="geometry" />
        </mxCell>
        <mxCell id="svK2BMb9B0SJ8rqlToY9-14" value="Cuadrado" style="swimlane;fontStyle=1;align=center;verticalAlign=top;childLayout=stackLayout;horizontal=1;startSize=26;horizontalStack=0;resizeParent=1;resizeParentMax=0;resizeLast=0;collapsible=1;marginBottom=0;whiteSpace=wrap;html=1;" vertex="1" parent="1">
          <mxGeometry x="444" y="660" width="160" height="86" as="geometry" />
        </mxCell>
        <mxCell id="svK2BMb9B0SJ8rqlToY9-15" value="+draw()" style="text;strokeColor=none;fillColor=none;align=left;verticalAlign=top;spacingLeft=4;spacingRight=4;overflow=hidden;rotatable=0;points=[[0,0.5],[1,0.5]];portConstraint=eastwest;whiteSpace=wrap;html=1;" vertex="1" parent="svK2BMb9B0SJ8rqlToY9-14">
          <mxGeometry y="26" width="160" height="26" as="geometry" />
        </mxCell>
        <mxCell id="svK2BMb9B0SJ8rqlToY9-16" value="" style="line;strokeWidth=1;fillColor=none;align=left;verticalAlign=middle;spacingTop=-1;spacingLeft=3;spacingRight=3;rotatable=0;labelPosition=right;points=[];portConstraint=eastwest;strokeColor=inherit;" vertex="1" parent="svK2BMb9B0SJ8rqlToY9-14">
          <mxGeometry y="52" width="160" height="8" as="geometry" />
        </mxCell>
        <mxCell id="svK2BMb9B0SJ8rqlToY9-17" value="+update()" style="text;strokeColor=none;fillColor=none;align=left;verticalAlign=top;spacingLeft=4;spacingRight=4;overflow=hidden;rotatable=0;points=[[0,0.5],[1,0.5]];portConstraint=eastwest;whiteSpace=wrap;html=1;" vertex="1" parent="svK2BMb9B0SJ8rqlToY9-14">
          <mxGeometry y="60" width="160" height="26" as="geometry" />
        </mxCell>
        <mxCell id="svK2BMb9B0SJ8rqlToY9-29" value="Extends" style="endArrow=block;endSize=16;endFill=0;html=1;rounded=0;entryX=0.469;entryY=1.06;entryDx=0;entryDy=0;entryPerimeter=0;" edge="1" parent="1" target="svK2BMb9B0SJ8rqlToY9-9">
          <mxGeometry width="160" relative="1" as="geometry">
            <mxPoint x="370" y="730" as="sourcePoint" />
            <mxPoint x="270" y="550" as="targetPoint" />
          </mxGeometry>
        </mxCell>
        <mxCell id="svK2BMb9B0SJ8rqlToY9-30" value="" style="endArrow=none;html=1;rounded=0;exitX=1.013;exitY=0.269;exitDx=0;exitDy=0;exitPerimeter=0;entryX=0;entryY=0.5;entryDx=0;entryDy=0;" edge="1" parent="1" source="svK2BMb9B0SJ8rqlToY9-13" target="svK2BMb9B0SJ8rqlToY9-17">
          <mxGeometry width="50" height="50" relative="1" as="geometry">
            <mxPoint x="340" y="770" as="sourcePoint" />
            <mxPoint x="390" y="720" as="targetPoint" />
          </mxGeometry>
        </mxCell>
      </root>
    </mxGraphModel>
  </diagram>
</mxfile>
